<svg width="60" height="60" viewBox="0 0 60 60" xmlns="http://www.w3.org/2000/svg">
  <!-- Blue arc -->
  <path d="M 20 30 A 15 15 0 0 1 40 30 A 10 10 0 0 0 30 20 A 15 15 0 0 1 20 30" 
        fill="#4489c9" stroke="none"/>
  
  <!-- Teal arc -->
  <path d="M 20 30 A 15 15 0 0 1 20 10 A 10 10 0 0 0 10 20 A 15 15 0 0 1 20 30" 
        fill="#51baad" stroke="none"/>
  
  <!-- Green arc -->
  <path d="M 20 30 A 15 15 0 0 1 40 30 A 10 10 0 0 0 30 40 A 15 15 0 0 1 20 30" 
        fill="#a3c962" stroke="none"/>
</svg>
